<?xml version="1.0" encoding="UTF-8"?>
<!DOCTYPE svg PUBLIC "-//W3C//DTD SVG 1.1//EN" "http://www.w3.org/Graphics/SVG/1.1/DTD/svg11.dtd">
<svg version="1.1" xmlns="http://www.w3.org/2000/svg" xmlns:xlink="http://www.w3.org/1999/xlink" x="0" y="0" width="500" height="200" viewBox="0, 0, 500, 200">
  <defs>
    <linearGradient id="Gradient_1" gradientUnits="userSpaceOnUse" x1="90.494" y1="91.719" x2="74.994" y2="143.719">
      <stop offset="0.016" stop-color="#2B3990"/>
      <stop offset="0.995" stop-color="#00AEEF"/>
    </linearGradient>
    <linearGradient id="Gradient_2" gradientUnits="userSpaceOnUse" x1="90.086" y1="114.873" x2="119.753" y2="102.873">
      <stop offset="0.016" stop-color="#2B3990"/>
      <stop offset="0.995" stop-color="#00AEEF"/>
    </linearGradient>
    <linearGradient id="Gradient_3" gradientUnits="userSpaceOnUse" x1="103.718" y1="143.403" x2="58.108" y2="85.807">
      <stop offset="0.016" stop-color="#2B3990"/>
      <stop offset="0.995" stop-color="#00AEEF"/>
    </linearGradient>
    <linearGradient id="Gradient_4" gradientUnits="userSpaceOnUse" x1="68.067" y1="117.746" x2="80.525" y2="117.746">
      <stop offset="0.016" stop-color="#2B3990"/>
      <stop offset="0.995" stop-color="#00AEEF"/>
    </linearGradient>
    <linearGradient id="Gradient_5" gradientUnits="userSpaceOnUse" x1="60.043" y1="120.988" x2="72.486" y2="120.988">
      <stop offset="0.016" stop-color="#2B3990"/>
      <stop offset="0.995" stop-color="#00AEEF"/>
    </linearGradient>
    <linearGradient id="Gradient_6" gradientUnits="userSpaceOnUse" x1="72.078" y1="115.973" x2="84.545" y2="115.973">
      <stop offset="0.016" stop-color="#2B3990"/>
      <stop offset="0.995" stop-color="#00AEEF"/>
    </linearGradient>
    <linearGradient id="Gradient_7" gradientUnits="userSpaceOnUse" x1="64.055" y1="119.517" x2="76.505" y2="119.517">
      <stop offset="0.016" stop-color="#2B3990"/>
      <stop offset="0.995" stop-color="#00AEEF"/>
    </linearGradient>
    <linearGradient id="Gradient_8" gradientUnits="userSpaceOnUse" x1="76.09" y1="114.199" x2="88.564" y2="114.199">
      <stop offset="0.016" stop-color="#2B3990"/>
      <stop offset="0.995" stop-color="#00AEEF"/>
    </linearGradient>
    <linearGradient id="Gradient_9" gradientUnits="userSpaceOnUse" x1="80.102" y1="112.426" x2="92.584" y2="112.426">
      <stop offset="0.016" stop-color="#2B3990"/>
      <stop offset="0.995" stop-color="#00AEEF"/>
    </linearGradient>
    <linearGradient id="Gradient_10" gradientUnits="userSpaceOnUse" x1="88.125" y1="108.881" x2="100.623" y2="108.881">
      <stop offset="0.016" stop-color="#2B3990"/>
      <stop offset="0.995" stop-color="#00AEEF"/>
    </linearGradient>
    <linearGradient id="Gradient_11" gradientUnits="userSpaceOnUse" x1="84.114" y1="110.653" x2="96.604" y2="110.653">
      <stop offset="0.016" stop-color="#2B3990"/>
      <stop offset="0.995" stop-color="#00AEEF"/>
    </linearGradient>
    <linearGradient id="Gradient_12" gradientUnits="userSpaceOnUse" x1="91.799" y1="79.714" x2="106.549" y2="113.339">
      <stop offset="0.016" stop-color="#2B3990"/>
      <stop offset="0.995" stop-color="#00AEEF"/>
    </linearGradient>
  </defs>
  <g id="Layer_1">
    <g>
      <path d="M163.023,154.066 L162.053,148.197 C161.95,148.021 161.488,147.351 159.824,146.08 C159.238,145.631 157.97,145.098 155.261,145.098 C148.415,145.098 138.768,148.623 138.673,148.659 L137.582,149.065 L135.079,144.501 C134.662,144.929 134.227,145.364 133.787,145.784 L133.68,145.888 C118.589,160.255 99.802,158.652 84.838,145.738 C82.607,143.81 80.504,141.996 78.019,140.828 C78.015,140.826 77.698,140.687 76.824,140.687 C73.506,140.687 67.666,142.611 64.806,144.644 L62.022,146.624 C60.934,144.093 57.55,138.501 61.491,129.819 C63.484,125.428 66.746,122.153 70.441,120.833 L72.908,119.952 L74.423,123.065 C75.159,124.833 78.207,122.98 78.471,122.945 L75.783,117.13 C75.752,117.134 75.725,117.14 75.69,117.14 C73.315,117.109 70.733,116.765 65.095,120.72 L58.947,108.582 L64.445,105.797 C64.786,105.625 64.782,104.931 64.435,104.244 C64.087,103.557 63.529,103.141 63.187,103.314 L62.645,103.589 C59.822,98.023 59.073,92.168 60.249,87.502 C61.8,81.348 66.292,77.674 72.266,77.674 C75.112,77.674 78.185,78.508 81.429,80.16 C81.3,78.262 81.281,76.359 81.37,74.502 C79.736,71.699 78.319,69.859 77.272,68.502 C75.383,66.053 73.754,63.939 75.34,60.633 C78.034,55.391 82.4,52.639 87.982,52.639 C88.469,52.639 88.97,52.66 89.478,52.703 C97.677,44.144 118.452,43.205 127.136,43.205 C127.3,43.205 127.461,43.209 127.621,43.215 C129.784,42.569 132.044,42.24 134.34,42.24 C140.579,42.24 146.148,44.678 149.616,48.929 L150.237,49.691 L150.237,50.675 C150.237,51.327 150.19,51.964 150.096,52.603 C154.679,57.757 157.584,64.994 158.693,73.628 L159.538,73.513 C160.251,73.419 160.95,73.372 161.622,73.372 C168.071,73.372 172.729,77.649 173.489,84.268 C174.298,91.317 170.03,99.998 160.529,102.207 L156.472,103.15 C154.83,109.832 152.51,116.402 149.686,122.496 C150.504,122.111 151.348,121.912 152.204,121.912 C156.61,121.912 159.183,126.769 161.249,130.674 C161.513,131.172 161.87,131.848 162.218,132.459 C164.152,131.039 167.047,130.324 170.859,130.324 C173.908,130.324 176.529,130.777 176.818,130.828 L181.441,131.666 L163.023,154.066 z" fill="#FFFFFF"/>
      <g>
        <path d="M228.723,59.911 L239.348,59.911 L239.348,122.405 L228.723,122.405 L228.723,99.996 L206.85,99.996 L206.85,122.405 L196.137,122.405 L196.137,59.911 L206.85,59.911 L206.85,89.372 L228.723,89.372 L228.723,59.911 z" fill="#000000"/>
        <path d="M244.883,66.428 C244.883,64.524 245.508,62.947 246.758,61.697 C248.008,60.447 249.526,59.822 251.312,59.822 C253.216,59.822 254.793,60.447 256.043,61.697 C257.293,62.947 257.918,64.524 257.918,66.428 C257.918,68.214 257.293,69.732 256.043,70.982 C254.793,72.232 253.216,72.857 251.312,72.857 C249.526,72.857 248.008,72.232 246.758,70.982 C245.508,69.732 244.883,68.214 244.883,66.428 z M246.133,77.767 L256.489,77.767 L256.489,122.406 L246.133,122.406 L246.133,77.767 z" fill="#000000"/>
        <path d="M311.842,99.996 C311.842,103.449 311.217,106.647 309.967,109.594 C308.717,112.541 306.99,115.1 304.789,117.272 C302.586,119.446 300.013,121.156 297.066,122.406 C294.119,123.656 290.95,124.281 287.557,124.281 C284.164,124.281 280.995,123.64 278.049,122.361 C275.103,121.082 272.543,119.356 270.371,117.183 C268.197,115.011 266.473,112.452 265.193,109.505 C263.912,106.559 263.273,103.389 263.273,99.996 C263.273,96.603 263.912,93.434 265.193,90.488 C266.472,87.542 268.197,84.983 270.371,82.81 C272.543,80.638 275.102,78.913 278.049,77.632 C280.995,76.353 284.164,75.712 287.557,75.712 C288.866,75.712 290.176,75.861 291.486,76.158 C292.795,76.457 294.059,76.843 295.28,77.319 C296.5,77.796 297.646,78.345 298.718,78.97 C299.79,79.595 300.711,80.264 301.486,80.979 L301.486,59.91 L311.842,59.91 L311.842,99.996 z M301.485,99.996 C301.485,98.093 301.113,96.291 300.369,94.595 C299.624,92.899 298.628,91.426 297.379,90.176 C296.129,88.926 294.655,87.93 292.96,87.186 C291.263,86.442 289.462,86.07 287.558,86.07 C285.653,86.07 283.853,86.442 282.158,87.186 C280.461,87.93 278.988,88.926 277.738,90.176 C276.488,91.426 275.491,92.899 274.748,94.595 C274.003,96.291 273.632,98.093 273.632,99.996 C273.632,101.902 274.003,103.701 274.748,105.397 C275.491,107.093 276.488,108.567 277.738,109.817 C278.988,111.067 280.461,112.064 282.158,112.807 C283.853,113.552 285.653,113.923 287.558,113.923 C289.462,113.923 291.263,113.552 292.96,112.807 C294.655,112.064 296.129,111.067 297.379,109.817 C298.628,108.567 299.624,107.093 300.369,105.397 C301.113,103.701 301.485,101.902 301.485,99.996 z" fill="#000000"/>
        <path d="M317.912,99.996 C317.912,96.603 318.551,93.434 319.832,90.488 C321.11,87.542 322.851,84.983 325.055,82.81 C327.256,80.638 329.831,78.913 332.778,77.632 C335.724,76.353 338.893,75.712 342.286,75.712 C345.679,75.712 348.848,76.353 351.794,77.632 C354.74,78.912 357.299,80.638 359.473,82.81 C361.645,84.983 363.369,87.541 364.651,90.488 C365.93,93.434 366.57,96.603 366.57,99.996 L366.57,122.405 L356.214,122.405 L356.214,119.905 C352.108,122.821 347.465,124.28 342.287,124.28 C338.596,124.28 335.248,123.655 332.243,122.405 C329.237,121.155 326.677,119.429 324.565,117.227 C322.452,115.026 320.815,112.451 319.655,109.504 C318.492,106.559 317.912,103.389 317.912,99.996 z M328.268,99.996 C328.268,101.902 328.64,103.701 329.387,105.397 C330.133,107.093 331.133,108.567 332.387,109.817 C333.641,111.067 335.118,112.064 336.821,112.807 C338.522,113.552 340.329,113.923 342.24,113.923 C344.151,113.923 345.956,113.581 347.658,112.897 C349.36,112.213 350.852,111.245 352.137,109.996 C353.42,108.746 354.42,107.272 355.137,105.576 C355.855,103.88 356.212,102.02 356.212,99.996 C356.212,98.093 355.839,96.291 355.093,94.595 C354.346,92.899 353.346,91.426 352.092,90.176 C350.838,88.926 349.361,87.93 347.658,87.186 C345.955,86.442 344.151,86.07 342.24,86.07 C340.329,86.07 338.522,86.442 336.821,87.186 C335.119,87.93 333.641,88.926 332.387,90.176 C331.133,91.426 330.133,92.899 329.387,94.595 C328.64,96.291 328.268,98.093 328.268,99.996 z" fill="#000000"/>
        <path d="M372.817,59.911 L383.172,59.911 L383.172,122.405 L372.817,122.405 L372.817,59.911 z" fill="#000000"/>
        <path d="M413.795,75.713 C416.354,75.713 418.809,76.101 421.16,76.873 C423.511,77.647 425.698,78.719 427.722,80.088 L427.722,77.767 L438.078,77.767 L438.078,115.888 C438.078,119.281 437.438,122.451 436.159,125.397 C434.878,128.342 433.153,130.901 430.981,133.075 C428.807,135.247 426.249,136.972 423.302,138.253 C420.356,139.532 417.187,140.173 413.794,140.173 C408.734,140.112 404.359,138.862 400.67,136.423 C396.979,133.982 394.093,131.125 392.01,127.853 L398.26,121.335 C400.938,124.607 403.467,126.84 405.848,128.03 C408.229,129.22 410.877,129.816 413.794,129.816 C416.829,129.816 419.537,128.923 421.918,127.137 C424.298,125.352 425.965,123.119 426.918,120.442 C425.012,121.633 422.959,122.569 420.758,123.254 C418.555,123.938 416.234,124.281 413.794,124.281 C411.294,124.281 408.913,123.924 406.651,123.21 C403.556,122.139 400.773,120.592 398.304,118.567 C395.833,116.545 393.825,114.163 392.277,111.424 C390.432,107.973 389.509,104.163 389.509,99.996 C389.509,96.603 390.149,93.434 391.429,90.488 C392.708,87.542 394.434,84.983 396.607,82.81 C398.779,80.638 401.339,78.913 404.286,77.632 C407.233,76.353 410.402,75.713 413.795,75.713 z M399.867,99.996 C399.867,101.902 400.238,103.701 400.983,105.397 C401.727,107.093 402.724,108.567 403.974,109.817 C405.223,111.067 406.697,112.064 408.393,112.807 C410.089,113.552 411.889,113.923 413.794,113.923 C415.638,113.864 417.424,113.492 419.15,112.807 C420.876,112.123 422.379,111.142 423.659,109.861 C424.938,108.583 425.935,107.064 426.65,105.308 C427.364,103.553 427.72,101.574 427.72,99.37 C427.72,97.644 427.422,96.067 426.827,94.639 C425.636,92.139 423.895,90.086 421.604,88.479 C419.312,86.873 416.708,86.069 413.792,86.069 C411.887,86.069 410.087,86.441 408.391,87.185 C406.695,87.929 405.221,88.925 403.972,90.175 C402.722,91.425 401.725,92.898 400.981,94.594 C400.238,96.291 399.867,98.093 399.867,99.996 z" fill="#000000"/>
        <path d="M443.345,99.996 C443.345,96.603 443.985,93.434 445.265,90.488 C446.544,87.542 448.286,84.983 450.488,82.81 C452.689,80.638 455.264,78.913 458.211,77.632 C461.157,76.353 464.326,75.712 467.719,75.712 C471.112,75.712 474.282,76.353 477.228,77.632 C480.174,78.912 482.733,80.638 484.906,82.81 C487.078,84.983 488.803,87.541 490.084,90.488 C491.363,93.434 492.004,96.603 492.004,99.996 C492.004,103.389 491.363,106.559 490.084,109.505 C488.804,112.451 487.078,115.011 484.906,117.183 C482.733,119.356 480.175,121.081 477.228,122.361 C474.281,123.641 471.112,124.281 467.719,124.281 C464.326,124.281 461.157,123.64 458.211,122.361 C455.265,121.082 452.69,119.356 450.488,117.183 C448.286,115.011 446.545,112.452 445.265,109.505 C443.984,106.559 443.345,103.389 443.345,99.996 z M453.702,99.996 C453.702,101.902 454.074,103.701 454.82,105.397 C455.566,107.093 456.567,108.567 457.821,109.817 C459.075,111.067 460.551,112.064 462.254,112.807 C463.956,113.552 465.763,113.923 467.674,113.923 C469.585,113.923 471.39,113.552 473.092,112.807 C474.794,112.064 476.271,111.067 477.525,109.817 C478.779,108.567 479.78,107.093 480.526,105.397 C481.272,103.701 481.646,101.902 481.646,99.996 C481.646,98.093 481.272,96.291 480.526,94.595 C479.78,92.899 478.779,91.426 477.525,90.176 C476.271,88.926 474.795,87.93 473.092,87.186 C471.389,86.442 469.585,86.07 467.674,86.07 C465.763,86.07 463.956,86.442 462.254,87.186 C460.552,87.93 459.075,88.926 457.821,90.176 C456.567,91.426 455.566,92.899 454.82,94.595 C454.074,96.291 453.702,98.093 453.702,99.996 z" fill="#000000"/>
      </g>
      <path d="M176.384,77.657" fill="#D8A951"/>
      <path d="M62.643,103.588 L57.495,108.996 L67.65,133.965 L90.223,136.142 L106.686,130.823 L90.978,90.31 z" fill="url(#Gradient_1)"/>
      <path d="M114.495,85.384 L91.188,90.212 L90.978,90.31 L106.686,130.823 L125.745,124.665 z" fill="url(#Gradient_2)"/>
      <path d="M89.791,94.812 L100.745,122.163 L72.245,134.663 L59.888,108.103 z" fill="url(#Gradient_3)"/>
      <g>
        <path d="M69.689,103.747 L68.067,104.468 L78.899,131.744 L80.525,131.031 z" fill="url(#Gradient_4)"/>
        <path d="M61.666,107.312 L60.043,108.034 L61.143,110.804 L72.244,134.663 L72.486,134.557 z" fill="url(#Gradient_5)"/>
        <path d="M73.701,101.964 L72.078,102.684 L82.918,129.981 L84.545,129.267 z" fill="url(#Gradient_6)"/>
        <path d="M65.678,105.529 L64.055,106.251 L74.879,133.507 L76.505,132.794 z" fill="url(#Gradient_7)"/>
        <path d="M77.713,100.181 L76.09,100.901 L86.938,128.219 L88.564,127.505 z" fill="url(#Gradient_8)"/>
        <path d="M81.724,98.397 L80.102,99.119 L90.958,126.455 L92.584,125.742 z" fill="url(#Gradient_9)"/>
        <path d="M89.748,94.831 L88.125,95.553 L98.997,122.93 L100.623,122.216 z" fill="url(#Gradient_10)"/>
        <path d="M85.736,96.614 L84.114,97.335 L94.977,124.692 L96.604,123.978 z" fill="url(#Gradient_11)"/>
      </g>
      <path d="M127.192,45.962 C116.445,45.962 96.876,47.365 90.664,55.622 C86.295,54.895 81.056,55.656 77.884,61.823 C76.452,64.809 79.53,65.507 84.224,73.837 L84.227,73.833 C84.095,75.811 84.092,77.874 84.24,80.026 C84.364,81.833 84.39,83.611 84.664,85.343 C64.056,70.614 56.033,92.284 68.326,107.271 C69.603,108.829 76.561,115.766 79.405,116.178 C80.095,116.277 84.111,117.107 86.764,114.855 C86.961,114.688 86.686,114.34 86.474,114.095 C87.129,113.982 87.702,113.549 88.084,113.182 C88.218,113.053 88.292,112.874 88.286,112.689 C88.281,112.503 88.198,112.328 88.057,112.208 C87.573,111.794 87.267,111.448 86.862,111.113 C87.815,110.934 89.244,109.934 88.602,109.817 C85.171,109.195 85.765,105.347 81.069,104.667 C80.455,104.578 79.85,104.582 79.268,104.662 C79.569,104.06 74.753,97.804 74.753,97.804 L91.187,90.212 L104.05,90.212 L115.52,118.832 L85.346,130.372 C78.95,131.22 73.46,129.542 71.423,123.431 C64.986,125.728 60.549,135.706 63.377,142.28 C67.585,139.287 76.385,136.813 79.363,138.215 C88.76,142.638 91.808,153.836 113.628,152.782 C151.322,150.963 180.982,45.962 127.192,45.962 z M122.376,57.972 C121.73,62.98 106.102,64.204 111.196,55.974 C111.915,54.81 113.185,54.101 114.552,54.099 C117.566,54.089 122.818,54.556 122.376,57.972 z" fill="#D8A951"/>
      <path d="M162.935,135.677 C160.003,140.007 156.909,120.966 150.33,125.316 C146.779,133.191 143.016,138.039 136.428,143.529 C136.428,143.529 138.55,143.256 138.928,143.183 L140.47,145.964 C147.185,143.306 156.301,139.868 161.557,143.888 C163.877,145.663 164.683,146.839 164.811,147.62 L176.384,133.544 C176.384,133.544 165.695,131.604 162.935,135.677 z" fill="#CC9C50"/>
      <path d="M120.512,102.62 C111.267,117.481 111.018,139.71 113.97,152.854 C137.737,151.18 158.169,108.692 156.275,77.819 C145.016,76.349 131.604,84.786 120.512,102.62 z" fill="#FFBE85"/>
      <path d="M127.076,46.077 C125.72,46.077 124.223,46.1 122.631,46.155 C138.741,53.854 157.935,88.696 139.662,123.141 C120.18,159.862 96.561,140.037 80.528,136.145 C71.155,133.87 65.911,138.174 63.168,142.143 C63.201,142.227 63.229,142.311 63.265,142.393 C67.473,139.399 76.273,136.928 79.251,138.329 C88.647,142.751 91.697,153.95 113.515,152.895 C151.206,151.077 180.867,46.077 127.076,46.077 z" fill="#CC9C50"/>
      <path d="M156.158,76.247 C152.845,76.745 149.088,77.448 145.355,79.28 C148.375,92.249 147.708,107.975 139.662,123.141 C131.082,139.313 121.701,144.514 112.518,144.944 C112.713,147.77 113.028,150.448 113.443,152.897 C113.467,152.897 113.49,152.897 113.514,152.895 C137.883,151.72 158.885,107.423 156.158,76.247 z" fill="#F2C799"/>
      <path d="M127.695,46.095 C129.45,51.224 136.087,57.741 142.708,59.87 C142.708,59.87 147.535,56.651 147.535,50.675 C142.92,45.017 134.432,43.778 127.695,46.095 z" fill="#000000"/>
      <path d="M159.357,76.247 C159.357,76.247 160.837,84.481 157.546,99.997 C174.701,97.798 173.667,74.35 159.357,76.247 z" fill="#D8A951"/>
      <path d="M156.18,76.487 C155.871,72.78 155.231,69.258 154.221,66.012 C151.492,67.795 148.001,67.147 143.922,60.098 C143.922,60.098 137.894,75.481 119.389,66.854 C119.389,66.854 131.572,86.765 156.18,76.487 z" fill="#000000"/>
      <path d="M114.553,54.099 C114.433,54.099 114.315,54.111 114.196,54.122 C113.592,54.733 113.24,55.472 113.24,56.265 C113.24,57.908 114.753,59.306 116.875,59.851 C116.521,59.568 116.291,59.136 116.291,58.648 C116.291,57.793 116.985,57.099 117.841,57.099 C118.697,57.099 119.39,57.792 119.39,58.648 C119.39,59.3 118.986,59.857 118.416,60.084 C118.557,60.092 118.699,60.1 118.844,60.1 C119.818,60.1 120.733,59.93 121.531,59.631 C121.993,59.143 122.299,58.588 122.378,57.973 C122.818,54.556 117.566,54.089 114.553,54.099 z" fill="#000000"/>
      <path d="M90.223,59.118 C90.223,59.118 85.282,56.481 81.219,62.046 C81.219,62.046 85.581,62.335 88.241,64.405 C88.556,64.651 88.964,64.694 89.309,64.522 C89.654,64.35 89.884,63.987 89.91,63.571 C90.009,61.972 90.135,60.056 90.223,59.118 z" fill="#CC9C50"/>
      <path d="M147.535,84.696 C149.141,80.206 151.223,68.938 151.006,66.801 C148.918,66.502 146.541,64.625 143.922,60.098 C143.922,60.098 141.722,65.692 135.919,68.239 C135.456,71.61 132.52,80.661 131.572,83.317 C136.007,84.919 140.979,86.243 147.535,84.696 z" fill="#F7EEDC"/>
      <path d="M145.765,84.114 C146.522,83.998 147.137,83.441 147.328,82.699 C148.561,77.892 149.683,71.381 150.118,68.747 C150.204,68.224 149.88,67.719 149.368,67.579 C147.6,67.1 145.356,64.262 144.536,63.153 C144.478,63.075 144.381,63.038 144.286,63.058 C144.191,63.078 144.117,63.151 144.097,63.246 L139.389,84.236 C141.346,84.465 143.455,84.467 145.765,84.114 z" fill="#B9B3A5"/>
      <path d="M163.064,137.681 C159.98,141.515 155.597,123.786 151.339,127.05 C149.782,130.505 148.351,133.198 146.596,135.827 C150.161,135.075 155.918,134.874 158.697,138.714 C162.604,144.118 164.874,139.577 167.431,137.909 C171.396,135.325 174.851,134.638 174.851,134.638 C174.851,134.638 166.053,133.968 163.064,137.681 z" fill="#D8A951"/>
      <path d="M70.732,106.907 C65.44,101.053 63.67,93.903 64.986,88.684 C65.486,86.702 66.83,83.565 70.383,82.717 C66.457,91.974 67.911,100.405 70.732,106.907 z" fill="#CC9C50"/>
      <g>
        <path d="M56.077,118.831 C56.077,117.88 55.305,117.106 54.353,117.106 L9.72,117.106 C8.768,117.106 7.996,117.879 7.996,118.831 C7.996,119.784 8.768,120.556 9.72,120.556 L54.353,120.556 C55.305,120.556 56.077,119.784 56.077,118.831 z" fill="#000000"/>
        <path d="M181.931,128.952 L177.308,128.114 C176.99,128.057 174.152,127.565 170.857,127.565 C167.926,127.565 165.415,127.961 163.351,128.753 C161.349,124.993 158.675,120.357 154.07,119.353 C155.929,114.839 157.49,110.189 158.73,105.46 L161.152,104.896 C172.21,102.324 177.172,92.187 176.228,83.955 C175.312,75.976 169.442,70.615 161.621,70.615 C161.424,70.615 161.225,70.617 161.025,70.625 C159.691,63.049 156.933,56.576 152.961,51.715 C152.983,51.371 152.994,51.027 152.994,50.676 L152.994,48.711 L152.374,47.951 L151.753,47.187 C147.756,42.289 141.41,39.48 134.338,39.48 C131.927,39.48 129.549,39.806 127.262,40.445 L127.134,40.445 C116.413,40.445 97.481,41.697 88.422,49.883 C88.274,49.883 88.127,49.879 87.981,49.879 C81.832,49.879 76.754,52.817 73.546,58.184 C73.435,58.161 73.32,58.149 73.202,58.149 L59.973,58.149 C59.021,58.149 58.249,58.92 58.249,59.872 C58.249,60.825 59.021,61.597 59.973,61.597 L72.109,61.597 C71.899,62.581 71.883,63.496 72.018,64.347 L38.55,64.347 C37.598,64.347 36.826,65.12 36.826,66.072 C36.826,67.025 37.598,67.797 38.55,67.797 L73.03,67.797 C73.143,67.797 73.253,67.784 73.36,67.764 C73.895,68.637 74.508,69.44 75.086,70.188 C75.991,71.364 77.203,72.936 78.58,75.211 C78.572,75.467 78.566,75.723 78.561,75.981 C76.392,75.274 74.285,74.918 72.264,74.918 C66.536,74.918 61.814,77.805 59.182,82.674 L20.428,82.674 C19.476,82.674 18.704,83.445 18.704,84.397 C18.704,85.352 19.476,86.122 20.428,86.122 L57.779,86.122 C57.71,86.358 57.634,86.589 57.573,86.831 C57.297,87.924 57.135,89.072 57.044,90.244 C56.952,90.229 56.86,90.216 56.765,90.216 L36.211,90.216 C35.259,90.216 34.487,90.987 34.487,91.941 C34.487,92.895 35.259,93.664 36.211,93.664 L56.765,93.664 C56.853,93.664 56.939,93.651 57.025,93.638 C57.246,97.063 58.153,100.625 59.742,104.002 C59.876,104.287 60.027,104.565 60.174,104.844 L55.822,107.048 C55.481,107.22 55.486,107.916 55.834,108.603 C55.889,108.711 55.955,108.798 56.019,108.892 C56.04,108.981 56.07,109.068 56.113,109.153 L62.968,122.686 C62.16,123.548 61.409,124.499 60.727,125.528 C60.411,125.164 59.95,124.928 59.43,124.928 L38.724,124.928 C37.772,124.928 37,125.699 37,126.653 C37,127.604 37.772,128.376 38.724,128.376 L59.132,128.376 C59.083,128.48 59.026,128.577 58.977,128.683 C54.635,138.253 57.718,143.605 59.486,147.716 L60.835,150.855 L63.619,148.875 L66.403,146.896 C68.803,145.189 74.06,143.451 76.822,143.451 C76.949,143.451 77.045,143.455 77.114,143.459 C79.154,144.482 81.041,146.111 83.034,147.83 C98.238,160.951 118.083,163.478 134.389,148.986 L135.163,150.394 L136.309,152.486 L138.543,151.654 L139.634,151.248 C142.192,150.309 150,147.861 155.259,147.861 C157.491,147.861 158.151,148.281 158.157,148.285 C158.814,148.789 159.218,149.154 159.451,149.385 L160.3,154.524 L161.291,160.52 L165.152,155.825 L183.568,133.427 L186.55,129.798 L181.931,128.952 z M163.022,154.065 L162.051,148.196 C161.948,148.02 161.486,147.35 159.822,146.079 C159.236,145.63 157.968,145.097 155.259,145.097 C148.413,145.097 138.767,148.622 138.671,148.658 L137.58,149.064 L135.076,144.5 C134.659,144.928 134.224,145.363 133.784,145.783 L133.677,145.887 C118.586,160.254 99.799,158.651 84.835,145.737 C82.604,143.809 80.501,141.995 78.016,140.827 C78.012,140.825 77.695,140.686 76.821,140.686 C73.503,140.686 67.663,142.61 64.803,144.643 L62.019,146.623 C60.931,144.092 57.547,138.5 61.488,129.818 C63.481,125.427 66.743,122.152 70.438,120.832 L72.905,119.951 L74.42,123.064 C75.156,124.832 78.204,122.979 78.468,122.944 L75.78,117.129 C75.749,117.133 75.722,117.139 75.687,117.139 C73.312,117.108 70.73,116.764 65.092,120.719 L58.944,108.581 L64.442,105.796 C64.783,105.624 64.779,104.93 64.432,104.243 C64.084,103.556 63.526,103.14 63.185,103.313 L62.642,103.588 C59.819,98.022 59.07,92.167 60.246,87.501 C61.797,81.347 66.289,77.673 72.263,77.673 C75.109,77.673 78.182,78.507 81.426,80.159 C81.297,78.261 81.278,76.358 81.367,74.501 C79.733,71.698 78.316,69.858 77.269,68.501 C75.38,66.052 73.751,63.938 75.337,60.632 C78.031,55.39 82.397,52.638 87.979,52.638 C88.466,52.638 88.967,52.659 89.475,52.702 C97.674,44.143 118.449,43.204 127.133,43.204 C127.297,43.204 127.458,43.208 127.618,43.214 C129.781,42.568 132.041,42.239 134.337,42.239 C140.576,42.239 146.144,44.677 149.614,48.928 L150.235,49.69 L150.235,50.674 C150.235,51.326 150.188,51.963 150.094,52.602 C154.676,57.756 157.582,64.993 158.69,73.627 L159.536,73.512 C160.248,73.418 160.948,73.371 161.62,73.371 C168.069,73.371 172.727,77.648 173.487,84.267 C174.296,91.316 170.028,99.997 160.526,102.206 L156.469,103.149 C154.828,109.831 152.508,116.401 149.683,122.495 C150.502,122.11 151.346,121.911 152.202,121.911 C156.608,121.911 159.181,126.768 161.247,130.673 C161.511,131.171 161.868,131.847 162.216,132.458 C164.15,131.038 167.044,130.323 170.857,130.323 C173.906,130.323 176.527,130.776 176.816,130.827 L181.439,131.665 L163.022,154.065 z" fill="#000000"/>
      </g>
      <path d="M159.357,76.247 C159.357,76.247 159.363,76.28 159.373,76.341 C163.46,79.681 169.869,87.107 163.914,97.804 C174.103,91.47 171.572,74.628 159.357,76.247 z" fill="#CC9C50"/>
      <path d="M91.188,90.212" fill="#000000"/>
      <path d="M93.62,92.621 L103.12,92.621 L113.245,117.746 L104.245,120.988 z" fill="url(#Gradient_12)"/>
      <path d="M98.373,92.621 L108.462,119.469 L108.935,119.299 L98.911,92.621 z" fill="#B9B3A5"/>
    </g>
  </g>
</svg>
